<?xml version="1.0" encoding="utf-8"?>
<!-- Generator: Adobe Illustrator 15.0.0, SVG Export Plug-In . SVG Version: 6.00 Build 0)  -->
<!DOCTYPE svg PUBLIC "-//W3C//DTD SVG 1.1//EN" "http://www.w3.org/Graphics/SVG/1.1/DTD/svg11.dtd">
<svg version="1.1" id="Layer_1" xmlns="http://www.w3.org/2000/svg" xmlns:xlink="http://www.w3.org/1999/xlink" x="0px" y="0px"
	 width="296.737px" height="77.809px" viewBox="0 0 296.737 77.809" enable-background="new 0 0 296.737 77.809"
	 xml:space="preserve">
<path fill-rule="evenodd" clip-rule="evenodd" fill="#FFFFFF" d="M56.245,14.186c0-1.077,0.874-1.95,1.95-1.95
	c1.077,0,1.95,0.873,1.95,1.95c0,1.077-0.873,1.949-1.95,1.949C57.118,16.135,56.245,15.263,56.245,14.186z M46.45,9.965
	c0-1.497,1.213-2.708,2.709-2.708s2.708,1.212,2.708,2.708c0,1.496-1.213,2.708-2.708,2.708S46.45,11.46,46.45,9.965z M23.447,70.68
	c0-1.877,1.522-3.396,3.399-3.396s3.4,1.52,3.4,3.396c0,1.881-1.522,3.402-3.4,3.402S23.447,72.561,23.447,70.68z M40.616,60.203
	c0-1.584,1.287-2.869,2.873-2.869c1.586,0,2.872,1.285,2.872,2.869c0,1.588-1.286,2.875-2.872,2.875
	C41.903,63.078,40.616,61.791,40.616,60.203z M49.184,63.988c0-2.062,1.673-3.734,3.736-3.734c2.063,0,3.737,1.672,3.737,3.734
	c0,2.064-1.673,3.736-3.737,3.736C50.857,67.725,49.184,66.053,49.184,63.988z M36.392,28.135c0-1.57,1.273-2.844,2.843-2.844
	c1.57,0,2.842,1.273,2.842,2.844s-1.272,2.844-2.842,2.844C37.666,30.979,36.392,29.705,36.392,28.135z M37.465,19.254
	c0-1.252,1.014-2.267,2.266-2.267c1.252,0,2.267,1.014,2.267,2.267c0,1.251-1.015,2.266-2.267,2.266
	C38.479,21.521,37.465,20.506,37.465,19.254z M29.497,44.799c0-2.166,1.759-3.926,3.929-3.926c2.168,0,3.928,1.76,3.928,3.926
	c0,2.172-1.76,3.93-3.928,3.93C31.255,48.729,29.497,46.971,29.497,44.799z M62.904,48.631c0-1.877,1.521-3.398,3.4-3.398
	c1.877,0,3.399,1.521,3.399,3.398c0,1.879-1.522,3.4-3.399,3.4C64.425,52.031,62.904,50.51,62.904,48.631z M71.968,40.842
	c0-2.299,1.862-4.16,4.159-4.16c2.296,0,4.158,1.861,4.158,4.16c0,2.297-1.862,4.156-4.158,4.156
	C73.83,44.998,71.968,43.139,71.968,40.842z M71.627,23.178c0-1.804,1.461-3.266,3.264-3.266c1.805,0,3.266,1.462,3.266,3.266
	c0,1.803-1.461,3.266-3.266,3.266C73.089,26.443,71.627,24.98,71.627,23.178z M73.812,31.984c0-1.309,1.061-2.369,2.372-2.369
	c1.31,0,2.371,1.061,2.371,2.369c0,1.312-1.062,2.373-2.371,2.373C74.873,34.357,73.812,33.297,73.812,31.984z M64.203,29.889
	c0-1.268,1.028-2.295,2.296-2.295c1.267,0,2.294,1.027,2.294,2.295s-1.027,2.295-2.294,2.295
	C65.23,32.184,64.203,31.156,64.203,29.889z M56.482,38.66c0-0.943,0.767-1.711,1.71-1.711c0.945,0,1.709,0.768,1.709,1.711
	s-0.765,1.711-1.709,1.711C57.249,40.371,56.482,39.604,56.482,38.66z M44.07,33.846c0-1.717,1.394-3.111,3.111-3.111
	c1.719,0,3.112,1.395,3.112,3.111c0,1.719-1.393,3.111-3.112,3.111C45.463,36.957,44.07,35.564,44.07,33.846z M58.637,21.689
	c0-2.021,1.638-3.66,3.659-3.66c2.021,0,3.66,1.639,3.66,3.66c0,2.021-1.639,3.66-3.66,3.66
	C60.275,25.35,58.637,23.711,58.637,21.689z M66.646,16.072c0-1.602,1.299-2.901,2.9-2.901s2.9,1.299,2.9,2.901
	c0,1.602-1.299,2.9-2.9,2.9S66.646,17.674,66.646,16.072z M60.128,8.751c0-1.077,0.873-1.949,1.949-1.949
	c1.077,0,1.949,0.872,1.949,1.949s-0.872,1.95-1.949,1.95C61.001,10.701,60.128,9.828,60.128,8.751z M46.433,21.896
	c0-2.037,1.652-3.688,3.688-3.688c2.038,0,3.689,1.652,3.689,3.688c0,2.037-1.651,3.688-3.689,3.688
	C48.084,25.584,46.433,23.934,46.433,21.896z M38.545,12.203c0-1.279,1.037-2.315,2.314-2.315c1.278,0,2.315,1.036,2.315,2.315
	c0,1.278-1.037,2.315-2.315,2.315C39.582,14.519,38.545,13.481,38.545,12.203z M44.415,2.668c0-0.843,0.685-1.527,1.528-1.527
	c0.843,0,1.527,0.684,1.527,1.527c0,0.844-0.684,1.527-1.527,1.527C45.1,4.196,44.415,3.512,44.415,2.668z M35.421,3.688
	C35.421,1.651,37.072,0,39.109,0c2.037,0,3.688,1.651,3.688,3.688c0,2.038-1.651,3.688-3.688,3.688
	C37.072,7.376,35.421,5.726,35.421,3.688z M27.81,4.221c0-1.093,0.886-1.979,1.979-1.979c1.093,0,1.978,0.886,1.978,1.979
	s-0.885,1.978-1.978,1.978C28.696,6.199,27.81,5.313,27.81,4.221z M19.855,7.773c0-1.41,1.144-2.554,2.554-2.554
	c1.411,0,2.555,1.144,2.555,2.554c0,1.411-1.144,2.555-2.555,2.555C20.999,10.328,19.855,9.184,19.855,7.773z M17.427,20.011
	c0-1.177,0.955-2.132,2.132-2.132c1.178,0,2.133,0.955,2.133,2.132s-0.955,2.132-2.133,2.132
	C18.382,22.144,17.427,21.188,17.427,20.011z M12.056,13.382c0-2.037,1.651-3.688,3.688-3.688c2.037,0,3.688,1.651,3.688,3.688
	s-1.651,3.688-3.688,3.688C13.708,17.071,12.056,15.419,12.056,13.382z M8.368,20.547c0-1.018,0.826-1.844,1.844-1.844
	c1.019,0,1.844,0.826,1.844,1.844c0,1.019-0.825,1.844-1.844,1.844C9.194,22.391,8.368,21.566,8.368,20.547z M13.535,26.291
	c0-1.02,0.826-1.844,1.845-1.844s1.844,0.824,1.844,1.844c0,1.018-0.826,1.844-1.844,1.844S13.535,27.309,13.535,26.291z
	 M13.591,35.932c0-1.527,1.24-2.768,2.767-2.768c1.528,0,2.766,1.24,2.766,2.768s-1.238,2.766-2.766,2.766
	C14.831,38.697,13.591,37.459,13.591,35.932z M5.045,49.764c0-1.879,1.522-3.4,3.4-3.4c1.879,0,3.4,1.521,3.4,3.4
	c0,1.877-1.521,3.398-3.4,3.398C6.567,53.162,5.045,51.641,5.045,49.764z M2.26,37.988c0-2.387,1.935-4.32,4.322-4.32
	c2.386,0,4.321,1.934,4.321,4.32s-1.935,4.322-4.321,4.322C4.194,42.311,2.26,40.375,2.26,37.988z M5.314,27.846
	c0-1.293,1.049-2.342,2.344-2.342c1.294,0,2.343,1.049,2.343,2.342c0,1.295-1.049,2.344-2.343,2.344
	C6.364,30.189,5.314,29.141,5.314,27.846z M21.124,49.588c0-1.412,1.144-2.555,2.555-2.555c1.412,0,2.555,1.143,2.555,2.555
	c0,1.41-1.144,2.555-2.555,2.555C22.268,52.143,21.124,50.998,21.124,49.588z M21.741,40.502c0-1.412,1.145-2.555,2.555-2.555
	c1.41,0,2.555,1.143,2.555,2.555s-1.145,2.553-2.555,2.553C22.885,43.055,21.741,41.914,21.741,40.502z M9.482,58.801
	c0-1.861,1.508-3.373,3.37-3.373c1.863,0,3.372,1.512,3.372,3.373s-1.509,3.371-3.372,3.371
	C10.991,62.172,9.482,60.662,9.482,58.801z M15.647,66.811c0-1.076,0.873-1.949,1.95-1.949c1.077,0,1.95,0.873,1.95,1.949
	c0,1.078-0.873,1.949-1.95,1.949C16.521,68.76,15.647,67.889,15.647,66.811z M36.457,54.678c0-0.9,0.731-1.633,1.633-1.633
	c0.901,0,1.633,0.732,1.633,1.633c0,0.902-0.731,1.633-1.633,1.633C37.188,56.311,36.457,55.58,36.457,54.678z M15.179,45.154
	c0-0.902,0.73-1.633,1.632-1.633c0.902,0,1.633,0.73,1.633,1.633s-0.73,1.633-1.633,1.633C15.91,46.787,15.179,46.057,15.179,45.154
	z M73.235,50.475c0-0.902,0.731-1.633,1.633-1.633c0.901,0,1.632,0.73,1.632,1.633c0,0.9-0.731,1.631-1.632,1.631
	C73.966,52.105,73.235,51.375,73.235,50.475z M63.438,66.857c0-0.9,0.731-1.629,1.633-1.629c0.902,0,1.633,0.729,1.633,1.629
	c0,0.904-0.731,1.635-1.633,1.635C64.17,68.492,63.438,67.762,63.438,66.857z M45.786,74.994c0-1.32,1.071-2.393,2.391-2.393
	c1.321,0,2.393,1.072,2.393,2.393c0,1.322-1.072,2.391-2.393,2.391C46.857,77.385,45.786,76.316,45.786,74.994z M33.301,74.6
	c0-1.771,1.436-3.207,3.208-3.207c1.771,0,3.208,1.436,3.208,3.207c0,1.773-1.437,3.209-3.208,3.209
	C34.736,77.809,33.301,76.373,33.301,74.6z M39.678,68.492c0-1.771,1.436-3.209,3.209-3.209c1.771,0,3.208,1.438,3.208,3.209
	s-1.437,3.207-3.208,3.207C41.114,71.699,39.678,70.264,39.678,68.492z M31.302,61.016c0-1.771,1.436-3.207,3.208-3.207
	c1.772,0,3.209,1.436,3.209,3.207s-1.437,3.209-3.209,3.209C32.738,64.225,31.302,62.787,31.302,61.016z M21.711,59.68
	c0-1.932,1.566-3.498,3.497-3.498s3.497,1.566,3.497,3.498c0,1.93-1.566,3.496-3.497,3.496S21.711,61.609,21.711,59.68z
	 M36.833,39.213c0-1.252,1.015-2.268,2.268-2.268c1.25,0,2.265,1.016,2.265,2.268c0,1.25-1.015,2.266-2.265,2.266
	C37.848,41.479,36.833,40.463,36.833,39.213z M62.608,39.359c0-1.438,1.166-2.602,2.603-2.602c1.437,0,2.603,1.164,2.603,2.602
	c0,1.439-1.166,2.604-2.603,2.604C63.774,41.963,62.608,40.799,62.608,39.359z M59.425,57.582c0-1.453,1.178-2.633,2.631-2.633
	c1.454,0,2.632,1.18,2.632,2.633s-1.179,2.631-2.632,2.631C60.603,60.213,59.425,59.035,59.425,57.582z M68.797,58.053
	c0-2.213,1.795-4.006,4.006-4.006c2.212,0,4.004,1.793,4.004,4.006s-1.792,4.006-4.004,4.006
	C70.592,62.059,68.797,60.266,68.797,58.053z M55.621,70.988c0-1.611,1.308-2.918,2.92-2.918c1.614,0,2.921,1.307,2.921,2.918
	c0,1.613-1.307,2.922-2.921,2.922C56.929,73.91,55.621,72.602,55.621,70.988z M52.453,5.853c0-1.5,1.216-2.716,2.717-2.716
	c1.5,0,2.716,1.216,2.716,2.716c0,1.501-1.216,2.717-2.716,2.717C53.669,8.569,52.453,7.354,52.453,5.853z M27.287,15.889
	c0-2.052,1.665-3.716,3.717-3.716s3.716,1.664,3.716,3.716c0,2.053-1.664,3.718-3.716,3.718S27.287,17.942,27.287,15.889z"/>
<path fill-rule="evenodd" clip-rule="evenodd" fill="#FFFFFF" d="M22.147,28.451c0-3.281,2.659-5.939,5.94-5.939
	c3.281,0,5.939,2.658,5.939,5.939s-2.659,5.939-5.939,5.939C24.806,34.391,22.147,31.732,22.147,28.451z M53.107,30.324
	c0-2.014,1.632-3.646,3.646-3.646c2.014,0,3.646,1.633,3.646,3.646c0,2.012-1.632,3.645-3.646,3.645
	C54.739,33.969,53.107,32.336,53.107,30.324z M43.133,47.49c0-4.312,3.497-7.809,7.809-7.809s7.809,3.496,7.809,7.809
	s-3.497,7.809-7.809,7.809S43.133,51.803,43.133,47.49z"/>
<g>
	<path fill="#FFFFFF" d="M103.616,36.121h4.997c6.008-0.111,8.534,0.17,8.534-6.961c0-6.963-1.011-7.58-10.948-7.58
		c-8.085,0-9.208,0.673-9.433,7.244v1.795h-4.772v-1.795c0-10.781,5.053-11.454,14.823-11.454c8.983,0.056,15.103,0,15.103,10.948
		c0,5.389-0.786,9.377-6.962,9.824v0.113c6.4,0.506,7.805,3.482,7.805,9.658c0,12.688-6.288,12.238-16.395,12.238
		c-9.657,0-15.104-1.348-14.936-11.174v-2.807h4.773v2.807c0,6.57,1.123,6.795,10.163,6.963c10.218,0.168,11.622-0.168,11.622-8.535
		c0-7.129-3.368-7.074-9.376-7.074h-4.997V36.121z"/>
</g>
<g>
	<path fill="#FFFFFF" d="M126.948,29.609c0-11.229,5.165-12.239,15.553-12.239c9.095,0,15.664,0.392,15.159,11.847h-4.772
		c-0.225-7.355-1.628-7.637-10.555-7.637c-9.321,0-10.612,1.179-10.612,7.02c0,8.027,3.817,7.354,11.678,7.58
		c9.994,0.561,15.047,0.279,15.047,11.676c0,11.904-5.615,12.297-16.226,12.297c-10.724,0-16.283-1.291-15.385-13.475h4.772
		c-0.112,9.264,1.685,9.264,10.612,9.264c8.983,0,11.453,0,11.453-8.254c0-8.027-3.593-6.682-11.285-7.297
		C134.079,39.715,126.948,40.725,126.948,29.609z"/>
	<path fill="#FFFFFF" d="M175.01,60.152c-7.691,0-12.238-4.828-12.238-13.25V30.619c0-11.902,7.354-13.249,17.572-13.249h3.931
		c8.814,0,11.509,3.817,11.509,12.128v1.346h-4.771v-1.178c0-5.896-1.235-8.086-7.411-8.086h-2.695
		c-9.883,0-13.361,1.179-13.361,8.873v11.564c0,9.602,0.392,13.924,8.364,13.924h5.671c7.637,0,9.994-1.068,9.994-7.076v-3.367
		h4.771v3.93c0,9.658-6.176,10.725-14.597,10.725H175.01z"/>
	<path fill="#FFFFFF" d="M206.172,50.889l-3.256,8.926h-4.997l15.329-42.108h6.736l15.721,42.108h-4.941l-3.312-8.926H206.172z
		 M216.728,21.637l-9.264,25.322h18.64L216.728,21.637z"/>
	<path fill="#FFFFFF" d="M245.026,55.605h21.447v4.209h-26.222V17.706h4.774V55.605z"/>
	<path fill="#FFFFFF" d="M274.446,36.234h21.337v3.93h-21.337v15.441h22.291v4.209h-27.063V17.706h27.063v4.212h-22.291V36.234z"/>
</g>
</svg>
