<?xml version="1.0" encoding="utf-8"?>
<!-- Generator: Adobe Illustrator 15.0.0, SVG Export Plug-In . SVG Version: 6.00 Build 0)  -->
<!DOCTYPE svg PUBLIC "-//W3C//DTD SVG 1.1//EN" "http://www.w3.org/Graphics/SVG/1.1/DTD/svg11.dtd">
<svg version="1.1" id="Layer_1" xmlns="http://www.w3.org/2000/svg" xmlns:xlink="http://www.w3.org/1999/xlink" x="0px" y="0px"
	 width="298.947px" height="91.02px" viewBox="0 0 298.947 91.02" enable-background="new 0 0 298.947 91.02" xml:space="preserve">
<polygon fill="#FFFFFF" points="16.912,5.347 22.258,5.347 27.606,5.347 32.953,5.347 38.3,5.347 43.647,5.347 48.995,5.347 
	54.341,5.347 59.689,5.347 65.035,5.347 70.383,5.347 75.73,5.347 81.077,5.347 81.077,0 75.73,0 70.383,0 65.035,0 59.689,0 
	54.341,0 48.995,0 43.647,0 38.3,0 32.953,0 27.606,0 22.258,0 16.912,0 11.564,0 6.217,0 6.217,5.347 11.564,5.347 "/>
<polygon fill="#FFFFFF" points="81.078,10.694 81.078,16.041 81.078,21.388 81.078,26.735 81.078,32.083 81.078,37.429 
	81.078,42.776 81.078,48.125 81.078,53.47 81.078,58.818 81.078,64.167 81.078,69.511 81.078,74.859 81.078,80.21 86.425,80.21 
	86.425,74.859 86.425,69.511 86.425,64.167 86.425,58.818 86.425,53.47 86.425,48.125 86.425,42.776 86.425,37.429 86.425,32.083 
	86.425,26.735 86.425,21.388 86.425,16.041 86.425,10.694 86.425,5.347 81.078,5.347 "/>
<path fill="#FFFFFF" d="M59.689,21.388h-5.347h-5.347h-5.348h-5.346h-5.347h-5.348v5.347h-5.348v5.348v5.346v5.347v5.348v5.346
	v5.348v5.349h5.348h5.348v-5.349V53.47h5.347v5.348v5.349h5.346h5.348v-5.349V53.47h5.347v5.348v5.349h5.347h5.348v-5.349V53.47
	v-5.346v-5.348v-5.347v-5.346v-5.348h-5.348V21.388z M54.343,37.429v5.347h-5.347h-5.348h-5.346h-5.347v-5.347v-5.346h5.347h5.346
	h5.348h5.347V37.429z"/>
<polygon fill="#FFFFFF" points="6.217,69.511 6.217,64.167 6.217,58.818 6.217,53.47 6.217,48.125 6.217,42.776 6.217,37.429 
	6.217,32.083 6.217,26.735 6.217,21.388 6.217,16.041 6.217,10.694 6.217,5.347 0.87,5.347 0.87,10.694 0.87,16.041 0.87,21.388 
	0.87,26.735 0.87,32.083 0.87,37.429 0.87,42.776 0.87,48.125 0.87,53.47 0.87,58.818 0.87,64.167 0.87,69.511 0.87,74.859 
	0.87,80.21 6.217,80.21 6.217,74.859 "/>
<polygon fill="#FFFFFF" points="117.557,32.18 121.095,32.18 124.637,32.18 124.637,28.643 121.095,28.643 117.557,28.643 
	114.019,28.643 110.478,28.643 110.478,32.18 114.019,32.18 "/>
<polygon fill="#FFFFFF" points="124.634,35.721 124.634,39.258 124.634,42.795 124.634,43.197 121.097,43.197 117.555,43.197 
	114.018,43.197 110.478,43.197 110.478,42.795 110.478,39.258 110.478,35.721 110.478,32.18 106.942,32.18 106.942,35.721 
	106.942,39.258 106.942,42.795 106.942,43.197 106.942,46.732 106.942,50.268 106.942,53.804 110.478,53.804 110.478,50.268 
	110.478,46.732 114.018,46.732 117.555,46.732 121.097,46.732 124.634,46.732 124.634,50.268 124.634,53.804 128.17,53.804 
	128.17,50.268 128.17,46.732 128.17,43.197 128.17,42.795 128.17,39.258 128.17,35.721 128.17,32.18 124.634,32.18 "/>
<polygon fill="#FFFFFF" points="209.055,32.18 212.591,32.18 216.128,32.18 216.128,28.643 212.591,28.643 209.055,28.643 
	205.516,28.643 201.974,28.643 201.974,32.18 205.516,32.18 "/>
<polygon fill="#FFFFFF" points="216.128,35.721 216.128,39.258 216.128,42.795 216.128,43.197 216.128,46.732 216.128,50.268 
	219.671,50.268 219.671,46.732 219.671,43.197 219.671,42.795 219.671,39.258 219.671,35.721 219.671,32.18 216.128,32.18 "/>
<polygon fill="#FFFFFF" points="201.974,43.194 201.974,42.795 201.974,39.258 201.974,35.721 201.974,32.18 198.438,32.18 
	198.438,35.721 198.438,39.258 198.438,42.795 198.438,43.194 198.438,46.732 198.438,50.268 201.974,50.268 201.974,46.732 "/>
<polygon fill="#FFFFFF" points="209.055,50.268 205.516,50.268 201.974,50.268 201.974,53.804 205.516,53.804 209.055,53.804 
	212.591,53.804 216.128,53.804 216.128,50.268 212.591,50.268 "/>
<polygon fill="#FFFFFF" points="237.595,32.18 241.134,32.18 244.674,32.18 244.674,28.643 241.134,28.643 237.595,28.643 
	234.057,28.643 230.516,28.643 230.516,32.18 234.057,32.18 "/>
<polygon fill="#FFFFFF" points="244.674,35.721 244.674,39.258 244.674,42.795 244.674,43.197 244.674,46.732 244.674,50.268 
	248.211,50.268 248.211,46.732 248.211,43.197 248.211,42.795 248.211,39.258 248.211,35.721 248.211,32.18 244.674,32.18 "/>
<polygon fill="#FFFFFF" points="230.518,43.194 230.518,42.795 230.518,39.258 230.518,35.721 230.518,32.18 226.979,32.18 
	226.979,35.721 226.979,39.258 226.979,42.795 226.979,43.194 226.979,46.732 226.979,50.268 230.518,50.268 230.518,46.732 "/>
<polygon fill="#FFFFFF" points="237.595,50.268 234.057,50.268 230.516,50.268 230.516,53.804 234.057,53.804 237.595,53.804 
	241.134,53.804 244.674,53.804 244.674,50.268 241.134,50.268 "/>
<polygon fill="#FFFFFF" points="288.336,32.18 291.87,32.18 295.411,32.18 295.411,28.643 291.87,28.643 288.336,28.643 
	284.795,28.643 281.252,28.643 281.252,32.18 284.795,32.18 "/>
<polygon fill="#FFFFFF" points="281.256,32.18 277.717,32.18 277.717,35.721 277.717,39.258 281.256,39.258 281.256,35.721 "/>
<polygon fill="#FFFFFF" points="291.87,39.258 288.336,39.258 284.795,39.258 281.256,39.258 281.256,42.795 284.795,42.795 
	288.336,42.795 291.87,42.795 295.411,42.795 295.411,39.258 "/>
<polygon fill="#FFFFFF" points="295.411,42.795 295.411,43.194 295.411,46.732 295.411,50.268 298.947,50.268 298.947,46.732 
	298.947,43.194 298.947,42.795 "/>
<polygon fill="#FFFFFF" points="288.336,50.268 284.795,50.268 281.252,50.268 281.252,53.804 284.795,53.804 288.336,53.804 
	291.87,53.804 295.411,53.804 295.411,50.268 291.87,50.268 "/>
<polygon fill="#FFFFFF" points="259.091,43.194 259.091,42.795 259.091,39.258 259.091,35.721 259.091,32.18 259.091,28.643 
	255.554,28.643 255.554,32.18 255.554,35.721 255.554,39.258 255.554,42.795 255.554,43.194 255.554,46.732 255.554,50.268 
	259.091,50.268 259.091,46.732 "/>
<polygon fill="#FFFFFF" points="266.17,50.268 262.635,50.268 259.088,50.268 259.088,53.804 262.635,53.804 266.17,53.804 
	269.709,53.804 273.245,53.804 273.245,50.268 269.709,50.268 "/>
<polygon fill="#FFFFFF" points="184.378,28.643 180.839,28.643 177.296,28.643 173.758,28.643 173.758,32.18 177.296,32.18 
	180.839,32.18 180.839,35.721 180.839,39.258 180.839,42.795 180.839,43.194 180.839,46.732 180.839,50.268 180.839,53.804 
	184.378,53.804 184.378,50.268 184.378,46.732 184.378,43.194 184.378,42.795 184.378,39.258 184.378,35.721 184.378,32.18 
	187.916,32.18 191.458,32.18 191.458,28.643 187.916,28.643 "/>
<polygon fill="#FFFFFF" points="145.991,32.18 149.531,32.18 153.065,32.18 153.065,28.643 149.531,28.643 145.991,28.643 
	142.45,28.643 138.91,28.643 138.91,32.18 142.45,32.18 "/>
<polygon fill="#FFFFFF" points="153.065,35.721 153.065,39.258 153.065,42.795 153.065,43.197 156.607,43.197 156.607,42.795 
	156.607,39.258 156.607,35.721 156.607,32.18 153.065,32.18 "/>
<polygon fill="#FFFFFF" points="145.991,43.194 142.45,43.194 138.91,43.194 138.91,42.795 138.91,39.258 138.91,35.721 
	138.91,32.18 135.371,32.18 135.371,35.721 135.371,39.258 135.371,42.795 135.371,43.194 135.371,46.732 135.371,50.268 
	135.371,53.804 138.91,53.804 138.91,50.268 138.91,46.732 142.45,46.732 145.991,46.732 149.531,46.732 153.065,46.732 
	153.065,43.194 149.531,43.194 "/>
<polygon fill="#FFFFFF" points="163.668,32.18 163.668,35.721 163.668,39.258 163.668,42.795 163.668,43.194 163.668,46.732 
	163.668,50.268 163.668,53.804 167.213,53.804 167.213,50.268 167.213,46.732 167.213,43.194 167.213,42.795 167.213,39.258 
	167.213,35.721 167.213,32.18 167.213,28.643 163.668,28.643 "/>
<polygon fill="#FFFFFF" points="70.384,80.21 65.037,80.21 59.689,80.21 54.343,80.21 48.996,80.21 43.647,80.21 38.301,80.21 
	32.955,80.21 27.607,80.21 22.259,80.21 16.913,80.21 11.565,80.21 6.219,80.21 6.219,85.553 11.565,85.553 16.913,85.553 
	22.259,85.553 27.607,85.553 32.955,85.553 38.301,85.553 43.647,85.553 48.996,85.553 54.343,85.553 59.689,85.553 65.037,85.553 
	70.384,85.553 75.731,85.553 81.078,85.553 81.078,80.21 75.731,80.21 "/>
<polygon fill="#FFFFFF" points="37.868,84.104 44.707,91.02 51.545,84.104 "/>
</svg>
