<?xml version="1.0" encoding="utf-8"?>
<!-- Generator: Adobe Illustrator 15.0.0, SVG Export Plug-In . SVG Version: 6.00 Build 0)  -->
<!DOCTYPE svg PUBLIC "-//W3C//DTD SVG 1.1//EN" "http://www.w3.org/Graphics/SVG/1.1/DTD/svg11.dtd">
<svg version="1.1" id="Layer_1" xmlns="http://www.w3.org/2000/svg" xmlns:xlink="http://www.w3.org/1999/xlink" x="0px" y="0px"
	 width="2000px" height="5000px" viewBox="0 0 2000 5000" enable-background="new 0 0 2000 5000" xml:space="preserve">
<g>
	<defs>
		<rect id="SVGID_1_" width="2020.858" height="2020.858"/>
	</defs>
	<clipPath id="SVGID_2_">
		<use xlink:href="#SVGID_1_"  overflow="visible"/>
	</clipPath>
	<radialGradient id="SVGID_3_" cx="1010.4287" cy="748.5596" r="1268.2181" gradientUnits="userSpaceOnUse">
		<stop  offset="0" style="stop-color:#FFFFFF"/>
		<stop  offset="0.4354" style="stop-color:#F5FBFD"/>
		<stop  offset="0.4583" style="stop-color:#F2F9FB"/>
		<stop  offset="0.6628" style="stop-color:#D8EFEF"/>
		<stop  offset="0.8478" style="stop-color:#C9E9EA"/>
		<stop  offset="0.9949" style="stop-color:#C3E7E7"/>
	</radialGradient>
	<rect x="-45.467" y="-39.835" clip-path="url(#SVGID_2_)" fill="url(#SVGID_3_)" width="2111.792" height="2111.796"/>
	<path clip-path="url(#SVGID_2_)" fill="#A3BB3A" d="M2002.075,982.11c-10.935-64.562,25.088-108.288,25.213-108.269
		c-35.633,5.787-72.314,80.635-72.354,80.598c-3.919-43.208,53.139-100.047,53.32-99.959c-29.015,5.634-75.264,68.505-75.184,68.531
		c12.541-45.902,30.153-72.678,30.191-72.668c-19.771,10.84-56.897,76.748-56.835,76.767c25.274-64.904,12.413-111.99,12.273-111.99
		c1.729,40.939-33.859,84.915-33.734,84.969c15.964-30.458,19.087-89.085,19.01-89.103c-9.556,57.729-50.179,91.302-50.05,91.365
		c2.277-21.691,16.421-50.537,25.32-66.874c1.601,0.554,2.706,0.745,2.706,0.745s2.041-3.781,1.63-8.48
		c1.821-3.15,2.953-4.975,2.964-4.97c-1.082,0.674-2.216,1.559-3.385,2.605c-0.976-3.602-3.651-7.447-9.805-10.413
		c15.737,7.583,23.9-6.356,23.9-6.356s-11.322-11.7-24.752-0.305c13.374-11.348,3.144-22.708,3.144-22.708
		s-15.154,6.559-9.744,21.458c-5.41-14.899-18.735-8.005-18.735-8.005s0.916,15.766,15.512,13.898
		c-14.558,1.858-11.553,17.31-11.553,17.31s5.751,1.333,10.418-1.556c-1.769,4.285-3.853,9.623-6.023,15.792
		c-1.762-5.856-6.284-16.153-16.823-19.324c0,0,7.216,10.64,12.022,21.526c-15.213,7.348-37.134,33.848-41.771,39.729
		c-0.331,0.44-0.68,0.891-0.992,1.251c0,0,0.387-0.499,0.992-1.251c12.681-16.879,51.902-153.156,51.836-153.183
		c-39.078,80.458-89.191,135.995-88.798,136.16c5.99-43.403,44.853-106.979,44.934-106.942
		c-36.269,24.561-72.447,80.499-72.395,80.513c1.342-25.171,26.554-70.293,26.622-70.264c-16.332,8.095-54.812,79.089-54.784,79.099
		c-3.895-16.242,4.273-40.551,10.817-56.242c3.693-2.13,5.93-3.313,5.93-3.313c-1.592,0.125-3.186,0.342-4.779,0.601
		c3.288-7.62,5.916-12.634,5.924-12.632c-4.928,3-9.452,8.149-14.026,14.476c-4.991,1.448-9.94,3.42-14.773,5.782
		c6.862-17.361,12.346-34.735,16.267-48.445c11.133,3.316,20.731-3.323,20.731-3.323s-4.066-11.708-15.745-15.193
		c1.369-5.443,2.078-8.636,2.078-8.636c-0.657,2.04-1.822,4.866-3.378,8.293c-3.87-0.905-8.507-0.928-14.043,0.59
		c23.569-6.462,17.327-26.831,17.327-26.831s-22.995-0.628-24.932,21.373c1.937-22-18.954-21.132-18.954-21.132
		s-8.113,20.453,11.418,26.679c-19.476-6.215-24.771,15.065-24.771,15.065s9.393,7.34,18.809,2.768
		c-2.344,3.937-4.694,8.269-7.021,12.884c-2.752-0.499-6.609-0.803-10.759,0.058c-2.286-5.96-6.157-11.841-12.648-15.924
		c0,0,2.78,8.205,5.323,18.784c-4.934,2.978-9.624,8.329-12.769,17.652c2.282-6.762,2.595-12.542,1.763-17.446
		c0.297-0.919,0.466-1.395,0.466-1.395c-0.202,0.198-0.395,0.429-0.596,0.637c-3.069-15.524-17.81-21.872-17.81-21.872
		s-14.685,18.233-0.498,37.177c-0.375,0.285-0.748,0.577-1.119,0.88c-7.061-4.399-13.438-5.009-18.697-4.006
		c5.732-18.228,11.73-30.239,11.734-30.236c-8.79,10.646-17.573,24.205-25.208,37.172c-0.942,0.862-1.456,1.448-1.456,1.448
		s0.11,0.188,0.314,0.498c-12.85,22.047-22.158,41.842-22.158,41.842c11.954-43.383,3.756-72.763,3.756-72.763
		c-13.662,60.464-38.392,68.66-38.389,68.697c19.865-24.726,20.137-61.118,20.078-61.134
		c-13.415,40.178-37.393,58.932-40.744,59.306c24.596-39.625,23.229-80.617,23.229-80.617
		c-15.031,42.359-34.843,69.004-34.843,69.004c-6.488-18.106,14.879-84.404,14.928-84.397c-17.61,4.588-35.476,63.572-35.423,61.851
		c-0.098-47.709,23.887-94.33,23.987-94.303c-25.581,5.123-49.97,109.315-49.948,109.334
		c-10.259-47.309,21.57-111.495,21.817-111.436c-41.333,39.445-40.965,95.227-41.106,95.183c-5.202-6.481-5.209-22.713-3.14-40.64
		c6.788-5.039,11.157-7.8,11.157-7.8c-3.637,0.182-7.068,0.616-10.324,1.247c2.844-20.525,7.838-41.966,10.537-52.82
		c14.307,6.017,27.659-2.249,27.659-2.249s-7.867-33.513-40.436-27.908c32.568-5.604,23.333-35.493,23.333-35.493
		s-32.68-3.935-34.229,26.695c1.55-30.546-31.253-30.083-31.253-30.083s-12.402,28.845,19.522,37.729
		c-31.566-8.786-43.144,23.314-43.144,23.314s14.855,11.83,31.55,3.771c-3.88,4.312-7.338,9.007-10.407,13.994
		c-11.262,18.474-17.523,40.866-20.82,63.008c-1.041-7.375-2.208-14.421-3.434-21.063c-1.376-11.768-4.059-22.437-6.638-30.708
		c-3.077-12.389-5.812-21.374-7.206-25.73c11.612-4.416,11.297-16.755,0.629-27.175c-5.155-5.037-14.422-10.517-14.422-10.517
		c1.351,6.446-0.395,11.875-5.17,20.177c-5.44,9.453,2.377,19.773,12.636,18.931c1.224,3.787,3.822,12.211,6.815,24.056
		c-0.032,0.785-0.073,1.552-0.113,2.323c-4.714-5.032-11.395-10.702-20.096-14.728c-0.173-8.548-0.555-13.825-0.592-13.829
		c0.005,0.003-0.603,4.961-1.737,12.809c-6.784-2.787-14.699-4.539-23.783-4.273c0,0,10.646,4.888,22.754,11.185
		c-4.446,29.077-13.913,81.342-25.91,93.571c19.417-60.204,6.125-95.045,6.094-95.048c0.513,30.23-22.817,90.896-22.807,90.914
		c5.386-32.501-1.789-57.096-1.789-57.096c-2.935,24.818-12.146,49.946-12.17,49.96c-9.733-18.959,14.271-73.777,14.349-73.786
		c-14.86,14.348-34.329,56.366-38.943,77.374c-14.452-34.139,20.305-107.793,18.818-106.619
		c-22.576,17.823-42.775,76.045-49.904,97.432c9.767-80.834-23.692-146.14-23.766-146.147c7.129,65.351,1.407,97.01-3.563,130.7
		c-12.958-0.21-20.141-48.721-20.2-48.715c1.631,34.524-4.602,67.927-4.615,67.932c-14.127-71.957-54.747-96-54.604-96.039
		c16.908,29.207,52.261,98.894,30.743,110.167c-11.787-33.136-38.559-77.117-38.559-77.117c14.349,45.604,5.877,70.994,5.765,70.968
		c-12.423-39.2-8.216-89.89-8.326-89.927c-12.811,24.083-21.868,76.6-21.906,76.605c-11.911-32.025-2.18-69.417-2.177-69.432
		c-18.445,25.108-21.964,56.907-22.034,56.878c-6.189-23.819,15.253-66.127,15.372-66.101
		c-33.807,38.863-34.838,75.582-34.936,75.548c-13.99-30.047,22.939-83.743,23.277-83.661c-6.742,3.967-12.862,9.22-18.362,15.101
		c2.022-6.636,3.97-12.429,5.692-17.254c8.564-3.265,19.956-4.624,19.956-4.624c-8.658-2.169-14.637-1.147-18.387,0.312
		c1.069-2.873,2-5.253,2.753-7.12c1.326,0.155,2.735,0.117,4.23-0.169c17.91-3.421,7.714-22.196-0.13-18.663
		c0,0-1.837-8.539-10.624-6.772c-9.231,1.858-7.811,17.16,0.521,23.229c-0.628,1.565-1.381,3.482-2.224,5.716
		c-0.918-2.704-3.334-6.874-9.688-8.544c0,0,6.974,4.534,8.431,11.923c-3.067,8.403-7.013,20.236-10.83,34.584
		c-16.199,22.503-24.627,47.435-24.627,47.435c-7.416-15.701,19.128-83.352,19.128-83.352c-5.171,3.604-10.171,9.49-14.812,16.403
		c1.885-19.368,2.758-36.25,3.137-45.616c5.497,10.624,17.653,11.328,17.653,11.328s6.461-18.906-13.485-27.222
		c19.865,8.28,26.562-9.242,26.562-9.242s-15.622-12.896-28.886,1.335c13.264-14.23-1.715-24.943-1.715-24.943
		s-16.711,9.807-6.525,24.705c-10.158-14.864-25.358-2.959-25.358-2.959s4.466,17.935,22.59,10.72
		c-17.92,7.131-11.907,26.294-11.907,26.294s9.021,0.209,14.444-6.796c-0.523,11.123-1.623,29.462-3.806,49.59
		c-3.049-11.934-8.825-24.064-18.444-33.8c1.602-15.725,3.176-26.928,3.208-26.926c-20.938,41.851-20.284,123.128-20.344,123.128
		c-19.277-24.861,3.218-110.858,3.404-110.854c-23.387,31.943-28.055,122.131-28,122.126c-3.313-19.095-4.49-101.122-4.472-101.12
		c-10.389,20.16-25.336,88.802-25.253,88.819c8.716-60.973-4.8-94.471-4.847-94.489c2.289,52.987-12.57,103.716-15.645,98.592
		c-6.847-51.212,7.174-110.679,7.174-110.679c-19.471,28.694-24.033,102.944-24.033,102.944
		c-17.342-20.191-5.017-69.892-5.046-69.896c-13.323,33.307-18.447,63.712-18.447,63.712c3.919-28.546-15.498-76.532-16.163-78.532
		c4.983,17.888-5.858,68.668-5.798,68.67c-18.879-23.474-22.548-115.64-22.485-115.649c-19.338,82.622,5.816,128.889,5.503,128.928
		c-11.571-6.982-21.078-48.546-21.078-48.568c0.23,24.397-1.452,67.696-1.469,67.699c-12.792-32.194-14.047-72.444-13.977-72.453
		c-5.942,27.328-2.426,69.238-3.102,71.086c-0.338-7.784-11.419-59.227-23.039-78.216c12.65,41.403,3.555,68.04,4.47,71.149
		c-16.399-29.845-25.854-84.234-25.857-84.218c-13.069,51.091,0,85.55,0,85.55s-14.895-39.71-37.583-80.275
		c6.591-10.25,11.55-17.281,11.55-17.281c-5.681,2.93-10.784,6.528-15.383,10.548c-0.912-1.57-1.832-3.138-2.764-4.701
		c0.707,1.802,1.388,3.583,2.051,5.35c-6.659,5.96-12.217,12.817-16.685,19.969c-2.356-1.736-3.683-2.006-3.683-2.006
		c0.465,2.093,0.874,4.113,1.258,6.097c-2.995,5.321-5.404,10.708-7.298,15.924c0.744-17.544,2.327-33.011,3.93-45.104
		c10.93-13.77,27.089-23.803,27.089-23.803c-13.808,2.623-21.579,9.357-25.885,15.311c0.98-6.479,1.883-11.507,2.501-14.729
		c0.2,0.009,0.378,0.038,0.582,0.041c8.323,0.143,13.798-8.798,8.634-15.772c-4.428-5.988-6.259-10.024-5.792-15.122
		c0,0-6.666,5.059-10.196,9.408c-6.609,8.133-6.519,16.706,0.469,20.036c-0.432,2.247-1.006,5.392-1.648,9.275
		c-1.746-2.92-4.906-6.097-10.682-7.616c0,0,7.23,4.683,9.906,12.483c-2.428,15.83-5.381,40.729-5.759,69.796
		c-10.556-40.343-7.659-96.149-7.262-96.005c-17.081,31.429-14.873,117.188-14.693,117.169
		c-12.097-34.069-10.555-112.362-10.427-112.391c-19.648,29.534,2.53,132.099,2.466,132.107
		c-6.95-13.924-34.104-99.069-34.167-99.072c-4.932,4.975,3.857,96.121,3.906,96.105c-17.13-62.099-51.788-112.212-51.864-112.181
		c21.1,45.444,13.161,118.038,13.322,118.022c-0.55-43.922-31.253-82.275-31.345-82.246c14.212,62.984-2.384,103.263-2.242,103.249
		c-1.312-25.044-4.847-47.339-9.024-66.061c7.335-8.44,13.012-14.365,13.012-14.365c-5.332,1.806-10.198,4.343-14.648,7.33
		c-0.968-3.989-1.957-7.809-2.952-11.415c1.256-0.21,2.016-0.444,2.016-0.444s-0.258-8.22-6.323-13.971
		c-0.907-2.814-1.793-5.446-2.647-7.886c8.356-4.682,8.413-14.428,8.413-14.428s-7.006-2.401-13.958-0.096
		c-1.94-4.628-3.169-7.07-3.209-7.061c0.749,2.509,1.438,4.998,2.094,7.474c-3.678,1.501-7.225,4.453-9.599,9.889
		c-0.001-0.024-0.005-0.052-0.006-0.076c6.328-16.377-9.942-20.741-9.942-20.741s-11.425,14.111,2.424,23.819
		c-13.811-9.689-23.213,5.77-23.213,5.77s9.834,14.25,23.346,1.947c-3.152,2.87-4.903,5.888-5.756,8.823
		c-2.223,1.254-4.332,2.571-6.335,3.943c-1.72-3.271-2.729-4.981-2.729-4.981c0.373,2.094,0.721,4.144,1.055,6.162
		c-12.715,9.179-20.972,20.653-26.273,32.363c-9.917-10.041-17.677-12.946-17.699-12.924c0.097-0.03,6.189,11.1,12.928,25.978
		c-2.067,7.226-3.212,14.24-3.793,20.541c-5.784-27.411-12.527-52.207-17.514-69.233c9.604,8.7,22.129,8.688,22.129,8.688
		s8.08-29.202-22.87-39.992c30.826,10.744,39.384-16.384,39.384-16.384s-24.816-18.116-43.61,4.624
		c18.794-22.74-4.845-37.604-4.845-37.604s-24.418,16.349-7.648,37.987c-16.719-21.584-38.66-2.19-38.66-2.19
		s8.382,26.742,35.166,14.187c-26.484,12.413-15.652,40.881-15.652,40.881s21.488-0.793,25.51-22.263
		c4.636,14.875,13.975,46.471,21.614,82.593c-4.228-5.803-9.335-11.663-15.546-17.3c-9.486-25.479-15.411-33.909-15.411-33.909
		c2.456,8.758,4.295,17.482,5.651,25.974c-8.891-6.523-19.499-12.52-32.227-17.457c0,0,14.113,14.028,22.134,39.647
		c2.29,7.317,7.122,14.144,13.483,20.352c0.141,25.028-2.867,42.276-2.901,42.302c-3.998-32.405-23.796-49.365-23.815-49.389
		c11.249,26.848,11.684,48.771,11.667,48.764c-14.265-17.252-29.913-70.407-29.926-70.393
		c-2.904,20.033,10.708,76.574,10.737,76.563c-31.896-38.394-30.012-135.68-29.844-135.751
		c-20.497,79.935,13.854,148.386,13.322,148.598c-78.912-139.375-99.819-148.472-99.815-148.566
		c29.102,65.557,52.673,135.737,55.721,147.125c0.244,0.759,0.327,1.316,0,0c-38.916-70.296-59.16-85.798-59.318-85.755
		c27.575,60.55,18.877,98.358,18.997,98.342c-27.598-37.36-44.87-154.585-44.711-154.62
		c-5.199,29.685,20.874,162.163,22.162,166.458c-50.118-158.424-76.802-182.424-76.901-182.427
		c46.766,112.729,44.497,175.927,44.636,175.897c-10.323-26.128-22.893-46.018-34.873-60.862
		c3.805-21.516,7.982-38.646,7.982-38.646c-7.533,8.603-13.043,18.277-16.953,28.283c-4.804-5.16-9.37-9.47-13.509-13.046
		c-1.276-11.23-1.915-20.533-2.231-26.916c5.921,7.865,15.965,6.804,15.965,6.804s4.409-19.594-14.039-25.22
		c18.657,5.693,21.626-12.549,21.626-12.549s-16.135-10.606-25.029,5.045c8.922-15.692-8.546-24.081-8.546-24.081
		s-14.039,11.914,0.355,25c-14.394-13.086-28.899,1.057-28.899,1.057s8.123,16.909,27.239,7.014
		c-19.195,9.937-11.19,28.243-11.19,28.243s11.081-1.566,16.05-11.421c0.257,5.257,0.731,12.524,1.601,21.251
		c-7.803-5.943-12.85-8.481-12.85-8.481c5.249,6.364,9.874,12.538,13.96,18.508c2.103,17.283,5.671,38.533,11.722,60.612
		c0.333,5.323,0.989,10.309,1.899,14.787c0.053,0.252,0.104,0.489,0.159,0.734c-11.663-27.561-24.425-49.267-32.598-61.989
		c-0.199-7.529,5.611-13.478,5.611-13.478c-5.831,3.021-7.274,7.617-7.579,10.457c-1.312-1.993-2.464-3.7-3.422-5.087
		c6.8-7.746,4.833-22.988-4.581-22.777c-8.962,0.201-8.883,8.935-8.883,8.935c-8.428-1.729-14.259,18.825,3.968,18.237
		c1.521-0.05,2.903-0.321,4.161-0.762c1.144,1.656,2.575,3.775,4.25,6.344c-3.979-0.602-10.037-0.29-18.011,3.725
		c0,0,11.414-1.171,20.489,0.138c5.5,8.701,12.766,21.032,20.286,36.189c-17.115-20.836-28.588-28.065-28.513-28.114
		c29.378,56.022,24.202,86.885,24.237,86.862c-25.603-39.038-52.459-135.168-52.358-135.176
		c-8.772,28.5,26.604,134.989,26.647,134.975C80.21,836.929,47.528,806.157,47.415,806.185
		c44.689,99.317,45.842,136.536,45.891,136.517C75.714,897.775,29.782,840.42,29.665,840.446
		c15.202,24.082,19.152,101.141,19.152,101.141S-1.382,835.268-1.479,835.305c21.521,65.59,18.075,136.936,18.2,136.916
		c-22.299-31.358-18.2-98.997-18.2-98.997c-30.744,49.19-15.736,1208.546-15.736,1208.546h2053.141l7.143-1151.925
		C2013.688,943.507,2002.21,982.101,2002.075,982.11z M140.877,768.135c0,0,1.517-8.633,6.782-13.259
		c0.349-2.122-0.506-3.622-2.651-4.698c-5.051,0.585-11.376-1.836-11.376-1.836c5.615-1.392,10.199,0.326,11.987,1.17
		c2.034-0.212,3.123-1.452,3.4-3.829c-0.792-1.941-2.304-6.568-1.38-11.921c0,0,3.105,5.937,2.076,11.752
		c0.852,2.249,2.294,3.075,4.517,2.543c1.532-1.184,5.503-3.751,11.231-3.854c0,0-4.851,3.989-10.584,4.41
		c-1.84,1.767-2.074,3.488-0.736,5.383c1.854,1.088,6.219,4.237,8.423,10.795c0,0-6.71-3.937-8.989-10.351
		c-2.144-1.01-3.847-0.71-5.331,0.941C147.829,757.768,146.293,763.521,140.877,768.135z M180.182,892.625
		c-2.287-5.776-4.37-11.604-6.259-17.428c0.062-7.756,0.729-16.4,1.74-25.211C181.608,869.577,181.276,884.281,180.182,892.625z
		 M166.167,826.237c-0.895,3.928-1.584,7.845-2.08,11.712c-1.714-8.159-3.107-16.032-4.234-23.421
		C162.2,818.546,164.295,822.45,166.167,826.237z M502.985,700.664c0.211,1.046,0.434,2.1,0.628,3.138
		c-2.529-1.146-5.615-1.906-9.388-2.039C497.716,701.887,500.594,701.453,502.985,700.664z M506.355,721.788
		c0.717,6.091,1.197,11.977,1.487,17.612c-5.286,4.802-9.725,10.215-13.311,15.691c-0.943-14.59-1.926-27.511-2.762-37.682
		c0.008-1.057-0.087-2.185-0.28-3.375c-0.082-0.978-0.162-1.936-0.24-2.852C495.354,718.713,501.391,721.185,506.355,721.788z
		 M476.041,720.885c0.553,6.749,4.601,11.928,4.601,11.928s2.392-0.838,4.958-2.896c0.637,8.334,1.314,17.803,1.963,28.053
		c-5.312-14.361-10.394-25.606-14.106-33.179C474.371,723.386,475.233,722.086,476.041,720.885z M390.122,706.347
		c1.896-10.323,7.773-15.99,10.317-18.018c1.602-3.133,0.881-5.667-2.262-7.924c-8.694,0.6-16.842-4.339-16.842-4.339
		c8.626-1.085,15.138,1.917,17.695,3.364c3.449,0.32,5.438-1.231,6.236-4.783c-2.797-8.509,0.588-18.093,0.588-18.093
		c2.538,7.834,1.266,15.11,0.492,18.194c0.93,3.506,2.827,5.133,5.929,5.015c2.499-1.654,9.012-5.218,17.739-4.329
		c0,0-8.972,4.987-16.681,5.2c-2.984,2.073-3.946,4.509-2.967,7.624c8.897,5.806,13.033,18.44,13.033,18.44
		c-9.125-5.761-12.662-14.066-13.806-17.558c-2.585-2.158-5.207-2.247-8.202-0.265C399.347,698.995,390.122,706.347,390.122,706.347
		z M433.648,824.265c0.369,2.402,0.721,4.804,1.055,7.206c-1.01,4.344-2.34,6.205-2.365,6.923
		c-1.604-6.15-3.169-11.923-4.705-17.407C429.614,822.122,431.623,823.214,433.648,824.265z M452.056,836.391
		c-6.497-17.725-11.446-28.882-14.85-35.703c2.038-6.874,4.411-13.587,6.984-20.056
		C452.993,802.696,459.851,827.151,452.056,836.391z M472.368,805.842c-5.94-18.869-13.369-32.614-20.583-42.545
		c6.283-13.153,12.918-24.638,18.423-33.423C477.745,782.058,472.368,805.842,472.368,805.842z M502.417,807.26
		c-1.952-8.259-4.06-16.053-6.233-23.376c-0.263-5.257-0.543-10.411-0.834-15.425c3.826-5.686,8.336-11.604,12.833-17.164
		C508.426,785.017,502.296,807.276,502.417,807.26z M671.824,770.742c-2.346-3.04-4.435-6.596-6.293-10.542
		c-0.06-2.046-0.102-4.077-0.131-6.093c1.929-7.215,5.729-15.925,10.31-24.88C678.441,758.138,671.824,770.742,671.824,770.742z
		 M713.713,784.321c-11.74-39.277-22.634-59.113-30.369-69.11c4.022-7.003,8.17-13.747,11.9-19.607
		C714.137,749.364,713.735,784.341,713.713,784.321z M1005.089,650.769c1.653-6.719,5.743-10.219,7.499-11.455
		c1.178-1.999,0.805-3.695-1.178-5.304c-5.748,0.055-10.913-3.518-10.913-3.518c5.716-0.373,9.886,1.858,11.513,2.91
		c2.259,0.346,3.628-0.597,4.292-2.906c-1.51-5.71,1.097-11.887,1.097-11.887c1.365,5.258,0.24,9.996-0.39,11.996
		c0.474,2.346,1.656,3.491,3.704,3.535c1.713-0.99,6.141-3.081,11.85-2.156c0,0-6.1,2.934-11.185,2.771
		c-2.046,1.249-2.775,2.815-2.252,4.9c5.625,4.173,7.853,12.651,7.853,12.651c-5.778-4.149-7.783-9.755-8.398-12.098
		c-1.612-1.521-3.339-1.681-5.391-0.497C1011.449,646.292,1005.089,650.769,1005.089,650.769z M989.462,674.266
		c2.34,7.315,9.079,29.156,12.678,48.893c-8.455,17.86-13.875,34.362-13.846,34.364
		C984.346,737.313,986.874,700.152,989.462,674.266z M1399.878,670.886c9.145-7.39,18.276-7.914,21.916-7.778
		c3.651-1.494,4.889-4.174,3.865-8.388c-7.825-5.834-11.144-15.979-11.144-15.979c8.122,5.373,11.463,12.678,12.581,15.775
		c2.694,2.789,5.521,2.925,8.793,0.485c3.836-9.27,13.708-14.946,13.708-14.946c-3.564,8.513-9.959,13.766-12.865,15.823
		c-1.771,3.657-1.344,6.426,1.378,8.591c3.331,0.418,11.471,2.146,18.233,9.269c0,0-11.265-2.31-17.972-7.756
		c-4.05-0.419-6.642,0.948-8.084,4.309c3.317,11.432-2.392,25.188-2.392,25.188c-3.547-11.557-0.49-21.198,1.087-25.001
		c-0.62-3.719-2.784-5.709-6.778-6.215C1413.082,671.373,1399.878,670.886,1399.878,670.886z M1404.181,702.558
		c3.185-5.173,6.789-9.933,10.834-14.215c-3.73,20.204,12.151,33.812,12.151,33.812s28.187-18.919,9.76-50.682
		c4.775,8.229,10.139,13.161,15.465,15.981c-10.244,16.626-15.549,37.906-18.285,56.718c-3.567,1.307-6.894,2.855-9.941,4.637
		c-6.714-29.168-14.195-45.442-14.082-45.575c3.25,22.713,3.652,40.46,2.702,54.123c-2.315,2.177-4.433,4.456-6.346,6.799
		c2.896-11.953,3.677-26.444,0.036-43.5c0,0-11.758,21.541-19.079,29.057c-0.303,0.311-0.601,0.695-0.899,1.072
		C1389.98,733.386,1395.557,716.52,1404.181,702.558z M1359.32,716.076c-0.649,9.962-1.736,18.682-3.133,26.313
		c-5.055-4.691-10.834-8.84-17.377-11.977c0.584-9.552,0.764-18.402,0.748-25.814C1346.51,708.287,1353.642,712.319,1359.32,716.076
		z M1326.818,795.363c7.081-18.551,10.354-41.375,11.771-61.598c3.809,4.461,9.462,11.249,15.378,18.92
		C1344.347,790.992,1326.607,795.269,1326.818,795.363z M1356.06,811.395c8.251-10.188,13.092-21.585,15.62-33.182
		c0.161,0.273,0.312,0.541,0.471,0.812c0.526,5.035,0.977,10.185,1.34,15.423c-0.024,0.608-0.047,1.216-0.065,1.821
		C1364.069,806.591,1356.036,811.364,1356.06,811.395z M1404.129,783.104c1.997-2.19,4.009-4.317,6.021-6.367
		c-3.17,14.637-7.636,20.311-7.636,20.311C1403.306,792.194,1403.818,787.534,1404.129,783.104z M1431.257,789.333
		c-1.259-10.209-2.798-19.615-4.468-28.164c2.014-1.734,3.965-3.366,5.85-4.906C1430.771,775.222,1431.339,789.344,1431.257,789.333
		z M1631.993,791.006c2.358,0.141,4.995,0.482,7.431,1.199c-0.276,0.692-0.544,1.392-0.809,2.094
		c-2.071,0.089-4.709-0.051-7.611-0.794C1631.338,792.617,1631.667,791.794,1631.993,791.006z M1648.145,823.59
		c-0.064,0.458-0.13,0.921-0.197,1.392c-4.89,12.436-5.658,19.108-5.717,19.083c0.174-5.432,0.479-10.636,0.873-15.611
		C1644.928,827.138,1646.674,825.532,1648.145,823.59z M1658.674,795.057c1.555-0.047,3.014-0.192,4.405-0.407
		c-0.101,0.167-0.206,0.34-0.306,0.506C1661.482,795.06,1660.13,795.014,1658.674,795.057z M1695.768,756.343
		c0.7,8.149,6.222,14.073,9.211,16.711c-7.127,13.181-14.859,27.102-21.807,39.482c-0.862-4.287-2.916-9.432-7.678-13.032
		C1681.865,783.689,1688.874,768.121,1695.768,756.343z M1627.854,803.288c2.553-0.126,5.266-0.641,8.138-1.663
		c-0.105,0.305-0.206,0.608-0.306,0.914c-12.716,8.973-10.137,20.891-7.487,27.166c-1.12,4.882-2.051,9.376-2.8,13.233
		c-0.844-0.791-1.71-1.562-2.604-2.315C1623.116,825.056,1625.294,812.646,1627.854,803.288z M1667.203,821.07
		c2.169,0.519,4.325,0.721,6.332,0.736c-3.51,2.931-6.766,5.826-9.699,8.565C1664.91,827.353,1666.036,824.243,1667.203,821.07z
		 M1717.127,750.082c-0.79,1.536-1.604,3.11-2.441,4.721c-0.721-3.656-2.556-7.719-6.158-12.121
		C1711.334,746.112,1714.244,748.482,1717.127,750.082z M1654.599,790.168c3.681-5.299,9.63-8.346,13.211-9.798
		c0.128,0.779,0.251,1.559,0.368,2.338c-4.957,5.561-10.471,7.603-12.962,8.281c-2.548,2.103-2.872,4.555-1.007,7.673
		c1.854,0.652,3.556,1.573,5.08,2.591c-0.5,0.902-0.991,1.796-1.462,2.672c-2.329-1.821-3.88-3.636-4.716-4.743
		c-2.565-1.404-4.679-1.047-6.539,1.05c0.715-4.243,1.464-8.139,2.204-11.657C1650.166,790.101,1652.061,790.616,1654.599,790.168z
		 M1642.276,766.6c2.38,3.486,3.75,6.985,4.528,10.136c-0.956,1.626-1.879,3.337-2.775,5.119
		C1641.564,774.453,1642.276,766.6,1642.276,766.6z M1636.054,782.664c1.387,1.798,3.019,3.602,4.969,5.396
		c-1.892-1.74-3.743-3.17-5.558-4.37C1635.684,783.297,1635.879,782.955,1636.054,782.664z M1627.08,790.951
		c-0.233,0.293-0.466,0.586-0.692,0.884c-0.49-0.233-0.979-0.48-1.472-0.756C1624.916,791.08,1625.749,790.999,1627.08,790.951z
		 M1619.547,802.301c-6.236,11.015-10.483,22.734-12.495,28.844l-1.115-0.507c0.69-11.48,2.52-22.578,4.846-32.707
		C1613.268,799.725,1616.199,801.317,1619.547,802.301z M1605.913,830.975c0.208,0.267,0.497,0.642,0.837,1.091
		c-0.679,2.107-1.035,3.357-1.039,3.355C1605.759,833.934,1605.828,832.452,1605.913,830.975z M1661.433,850.515
		c0.53-0.833,1.086-1.662,1.661-2.491c-1.079,1.91-1.676,2.977-1.654,2.984C1661.435,850.846,1661.438,850.677,1661.433,850.515z
		 M1700.291,812.911c4.91-3.536,9.682-6.738,13.993-9.498c-8.269,12.6-17.285,27.551-29.519,39.562
		C1690.427,833.896,1695.617,823.577,1700.291,812.911z M1875.527,833.806c-7.395,9.446-15.411,22.784-22.212,35.069
		c5.095-19.06,11.399-34.765,14.985-43.002C1869.85,829.757,1872.776,832.249,1875.527,833.806z M1851.961,849.65
		c0.34,0.861,0.658,1.715,0.949,2.562c-3.255,10.049-6.46,21.667-8.832,34.015c-4.355,8.494-7.127,14.34-7.119,14.341
		C1836.064,871.15,1845.383,856.36,1851.961,849.65z"/>
	<path display="none" clip-path="url(#SVGID_2_)" fill="#FFFFFF" d="M1983.114,1983.114H37.745V37.745h1945.369V1983.114z
		 M43.091,1977.767h1934.675V43.091H43.091V1977.767z"/>
</g>
<path fill="#FFFFFF" d="M485.897,449.784c-3.174,2.379-8.079,0.499-8.079,0.499s2.896,1.396,2.022,5.879
	c-1.231,6.312-15.204,14.274-19.24,11.874c-3.75-2.226-2.32-4.863-3.946-4.57c-1.629,0.292-12.125,0.017-13.416-9.115
	c-1.757-12.416,6.832-15.403,6.832-15.403c-3.4-4.193-10.584-6.738-1.995-21.742c4.487-7.842,14.723,5.187,19.855,14.196
	c2.371,4.165,2.549,7.473,2.549,7.473c1.69-2.736,3.305-3.859,4.566-4.223c-0.396-3.511-1.326-11.568-2.188-16.347
	c-0.308-1.725-0.636-3.055-0.837-3.431c-0.122-0.229-0.033-0.516,0.2-0.635c0.232-0.123,0.519-0.033,0.632,0.197
	c0.331,0.644,0.609,1.936,0.937,3.703c0.863,4.807,1.796,12.832,2.191,16.373c0.024-0.003,0.054-0.006,0.075-0.003
	c0.284-1.156,0.734-3.1,1.19-5.34c0.745-3.622,1.505-8.036,1.577-11.113c0.008-0.263,0.225-0.468,0.489-0.463
	c0.257,0.009,0.462,0.223,0.459,0.486c-0.128,5.136-2.04,13.52-2.781,16.602c0.216,0.089,0.371,0.192,0.469,0.291
	c0.593,0.616,0.084,3.108,0.084,3.108s16.589-9.233,19.607-4.494C500.167,438.327,490.05,446.68,485.897,449.784z M472.881,441.242
	c-3.768-1.15-12.979,11.952-13.093,17.958c-0.056,2.893,0.504,1.841,2.189-0.393c1.815-2.412,3.86-4.421,6.647-7.419
	C472.048,447.703,475.72,442.107,472.881,441.242z M462.526,441.911c-2.063-2.023-10.165-9.652-8.339-21.346
	c0.418-2.669-2.789-3.29-3.174,1.768c-0.383,5.059,1.781,14.604,10.932,20.782C466.26,446.027,464.586,443.933,462.526,441.911z
	 M476.822,447.031c8.688,0.081,14.578-4.804,16.736-8.027c2.157-3.23-0.153-4.192-1.155-2.4c-4.402,7.853-13.12,9.092-15.375,9.454
	C474.772,446.426,472.727,446.993,476.822,447.031z M444.713,455.367c0.265,1.467,1.668,2.443,3.137,2.177
	c1.467-0.264,2.441-1.669,2.179-3.136c-0.267-1.47-1.671-2.444-3.138-2.18C445.423,452.495,444.449,453.896,444.713,455.367z
	 M450.325,459.477c0.191,1.066,1.213,1.774,2.281,1.583c1.068-0.193,1.777-1.214,1.584-2.282c-0.193-1.067-1.214-1.777-2.282-1.586
	C450.841,457.386,450.132,458.407,450.325,459.477z M444.847,449.287c0.131,0.72,0.818,1.201,1.539,1.072
	c0.722-0.132,1.199-0.822,1.069-1.542c-0.129-0.719-0.818-1.197-1.539-1.069C445.195,447.879,444.716,448.568,444.847,449.287z
	 M446.133,444.967c0.104,0.577,0.656,0.958,1.231,0.853c0.576-0.103,0.96-0.654,0.854-1.23c-0.103-0.577-0.655-0.957-1.229-0.854
	C446.414,443.839,446.03,444.39,446.133,444.967z M467.75,461.826c-0.973,0.174-1.619,1.104-1.443,2.077
	c0.174,0.973,1.105,1.619,2.078,1.444c0.973-0.175,1.619-1.105,1.443-2.08C469.655,462.294,468.725,461.648,467.75,461.826z
	 M462.939,463.461c-0.707,0.126-1.176,0.804-1.049,1.511c0.127,0.708,0.806,1.179,1.512,1.052c0.707-0.129,1.177-0.806,1.05-1.515
	C464.325,463.803,463.648,463.333,462.939,463.461z M472.474,460.576c-0.477,0.087-0.793,0.543-0.708,1.024
	c0.084,0.475,0.542,0.794,1.02,0.707c0.479-0.087,0.794-0.543,0.71-1.02C473.409,460.81,472.953,460.493,472.474,460.576z
	 M475.576,458.402c-0.382,0.067-0.637,0.434-0.567,0.815c0.069,0.384,0.435,0.636,0.816,0.568c0.381-0.069,0.635-0.434,0.567-0.818
	C476.323,458.586,475.957,458.334,475.576,458.402z"/>
<path fill="#FFFFFF" d="M1716.808,551.904c0.177-0.006,0.352-0.011,0.517-0.011c6.82,0.025,13.756,4.682,19.077,9.25
	c3.803,3.286,6.757,6.541,8.13,8.146c0.841,0.382,1.745,1.037,2.533,1.667c-0.514-2.395-0.799-4.876-0.336-6.467
	c1.185-3.93,12.741-47.255,19.282-43.658c12.197,6.682,18.886,31.474,13.377,43.27c0,0,25.964,0,18.103,25.569
	c-3.997,12.965-25.977,14.079-30.301,11.018c-4.184-2.973-7.63-6.602-10.352-10.074c-0.017,0.751-0.334,1.152-1.048,1.025
	c-3.394-0.618-10.648-13.06-12.87-19.181c-2.832-2.392-8.729-6.284-18.318-7.576c-0.434-0.058-0.734-0.453-0.676-0.884
	c0.062-0.432,0.461-0.733,0.889-0.683c8.356,1.136,14.049,4.179,17.447,6.638c-0.017-0.337,0.023-0.584,0.13-0.717
	c-0.206-0.233-0.428-0.476-0.675-0.749c-4.623-5.063-15.262-15.088-24.393-15.021c-0.158,0-0.302,0-0.454,0.012
	c-0.43,0.02-0.8-0.32-0.819-0.756C1716.034,552.287,1716.375,551.918,1716.808,551.904z M1762.939,535.051
	c4.523,12.914-0.713,26.196-5.703,34.213c-4.408,7.09-2.646,8.328,0.532,4.633c11.052-12.828,16.28-30.014,9.448-41.811
	C1764.602,527.57,1759.612,525.553,1762.939,535.051z M1788.422,584.5c-2.709,0-4.902,2.191-4.902,4.901
	c0,2.705,2.193,4.898,4.902,4.898c2.704,0,4.896-2.193,4.896-4.898C1793.318,586.692,1791.126,584.5,1788.422,584.5z
	 M1791.627,573.897c-1.97,0-3.564,1.595-3.564,3.566c0,1.965,1.595,3.558,3.564,3.558c1.972,0,3.563-1.592,3.563-3.558
	C1795.19,575.492,1793.599,573.897,1791.627,573.897z M1777.551,593.231c-1.326,0-2.406,1.077-2.406,2.404
	c0,1.332,1.08,2.407,2.406,2.407c1.327,0,2.406-1.076,2.406-2.407C1779.957,594.308,1778.878,593.231,1777.551,593.231z
	 M1768.463,593.175c-1.062,0-1.923,0.867-1.923,1.927c0,1.063,0.86,1.925,1.923,1.925c1.064,0,1.923-0.862,1.923-1.925
	C1770.386,594.042,1769.527,593.175,1768.463,593.175z"/>
<path fill="#FFFFFF" d="M333.503,624.165c-0.016,0.374-0.334,0.665-0.7,0.649c-0.134-0.011-0.257-0.011-0.391-0.011
	c-7.842-0.058-16.974,8.55-20.942,12.897c-0.212,0.233-0.404,0.442-0.58,0.64c0.092,0.115,0.124,0.327,0.11,0.617
	c2.919-2.112,7.806-4.724,14.981-5.699c0.367-0.043,0.708,0.216,0.762,0.585c0.05,0.37-0.207,0.71-0.58,0.758
	c-8.233,1.111-13.294,4.453-15.726,6.506c-1.911,5.257-8.137,15.937-11.052,16.468c-0.613,0.109-0.882-0.235-0.898-0.881
	c-2.34,2.981-5.295,6.097-8.889,8.648c-3.711,2.63-22.581,1.672-26.012-9.458c-6.75-21.953,15.54-21.953,15.54-21.953
	c-4.727-10.128,1.015-31.411,11.487-37.147c5.614-3.088,15.536,34.107,16.552,37.482c0.4,1.364,0.151,3.495-0.289,5.552
	c0.677-0.542,1.455-1.102,2.175-1.433c1.179-1.377,3.715-4.172,6.981-6.991c4.567-3.924,10.523-7.921,16.379-7.943
	c0.141,0,0.289,0.004,0.443,0.011C333.226,623.474,333.519,623.791,333.503,624.165z M289.578,606.448
	c-5.868,10.128-1.377,24.882,8.108,35.896c2.729,3.171,4.244,2.109,0.458-3.977c-4.284-6.883-8.777-18.286-4.896-29.375
	C296.104,600.839,291.823,602.571,289.578,606.448z M267.167,655.654c0,2.324,1.883,4.207,4.205,4.207
	c2.323,0,4.209-1.883,4.209-4.207c0-2.325-1.886-4.207-4.209-4.207C269.05,651.448,267.167,653.329,267.167,655.654z
	 M265.56,645.406c0,1.687,1.369,3.055,3.06,3.055c1.69,0,3.06-1.368,3.06-3.055c0-1.693-1.37-3.062-3.06-3.062
	C266.929,642.345,265.56,643.713,265.56,645.406z M278.639,661.006c0,1.142,0.926,2.066,2.065,2.066
	c1.141,0,2.066-0.924,2.066-2.066c0-1.138-0.925-2.064-2.066-2.064C279.564,658.942,278.639,659.868,278.639,661.006z
	 M286.856,660.549c0,0.914,0.739,1.653,1.651,1.653c0.912,0,1.651-0.739,1.651-1.653c0-0.91-0.739-1.654-1.651-1.654
	C287.595,658.895,286.856,659.639,286.856,660.549z"/>
<rect x="-7" y="1991" fill="#A3BB3B" width="2020" height="3009"/>
</svg>
