<svg xmlns="http://www.w3.org/2000/svg" xmlns:xlink="http://www.w3.org/1999/xlink" version="1.1" id="Layer_2" x="0px" y="0px" width="100px" height="100px" viewBox="0 0 100 100" enable-background="new 0 0 100 100" xml:space="preserve">
<g>
	<path fill="none" d="M62.979,90.362c-1.768,0-3.491,1.22-5.123,3.626c-0.385,0.566-0.515,0.919-0.559,1.096   c0.246,0.119,0.84,0.298,1.898,0.298c3.85,0,7.712-2.015,7.829-2.929c-0.005-0.032-0.076-0.204-0.329-0.467   C66.695,91.985,65.046,90.362,62.979,90.362z"/>
	<path fill="none" d="M36.794,57.107c-1.602,5.12-4.848,18.825,2.005,29.464c0.565-0.191,1.196-0.302,1.898-0.302   c0.56,0,1.141,0.084,1.738,0.228c-0.798-4.188-1.783-11.68,0.134-16.555c-0.07,0.008-0.138,0.022-0.21,0.022   c-1.432,0-3.426-1.737-5.944-5.183l1.695-1.239c1.399,1.912,3.072,3.689,3.91,4.194c0.044-0.56-0.038-1.951-0.954-5.215   l2.021-0.568c0.676,2.407,1.019,4.161,1.033,5.411c0.617-0.686,1.356-1.239,2.255-1.602c2.965-1.194,5.142-1.283,6.506-0.276   c0.153-0.666,0.336-1.374,0.582-2.162l2.006,0.624c-0.561,1.802-0.92,3.731-0.89,4.641c0.563-0.393,1.822-1.538,4.293-4.876   l1.688,1.248c-1.452,1.964-2.594,3.33-3.52,4.257c1.346,2.303,5.004,9.459,3.783,17.244c0.785-0.217,1.515-0.3,2.154-0.3   c0.071,0,0.14,0.007,0.209,0.009c6.155-11.71,1.492-26.196-0.682-31.641c-5.163,3.218-10.391,4.439-15.235,4.439   C43.469,58.971,39.908,58.221,36.794,57.107z"/>
	<path fill="none" d="M55.383,70.562c-0.427,0.239-0.793,0.346-1.119,0.346c-0.273,0-0.52-0.071-0.753-0.19   c-0.664-0.337-1.001-1.116-1.018-2.323c-0.146-0.139-0.275-0.315-0.378-0.554c-0.192-0.447-0.775-1.812-4.954-0.128   c-5.08,2.046-3.719,13.628-2.42,19.643c1.489,0.744,3.092,1.873,4.83,3.404c0.556,0.49,1.021,0.973,1.421,1.448   c0.69,0.068,1.93,0.148,2.993,0.077c0.122-0.214,0.241-0.427,0.395-0.653c1.355-1.999,2.757-3.297,4.092-4.125   C60.205,80.242,56.78,73.07,55.383,70.562z"/>
	<path fill="none" d="M50.224,43.69h-4.83c-0.141,0.178-0.106,0.276-0.086,0.331c0.325,0.914,2.773,2.031,3.787,2.031   C49.36,46.052,49.884,45.052,50.224,43.69z"/>
	<path fill="none" d="M46.795,93.911c-3.399-2.995-5.279-3.442-6.097-3.442c-1.525,0-1.912,1.979-1.952,2.205L38.63,93.35   l-0.498,0.496c-0.037,0.036-0.068,0.068-0.096,0.098c0.813,0.734,3.868,1.865,7.442,1.865c1.431,0,2.29-0.205,2.714-0.371   C48.013,95.146,47.625,94.641,46.795,93.911z"/>
	<path fill="none" d="M38.205,45.26c-1.149-0.859-2.264-1.154-3.33-0.884c-0.077,0.211-0.155,0.419-0.232,0.627   C35.813,45.227,37.29,45.345,38.205,45.26z"/>
	<path fill="none" d="M68.96,83.177c0.576-0.041,1.032-0.093,1.386-0.147c-0.243-0.494-0.389-1.144-0.065-1.889   c0.274-0.628,0.809-1.074,1.474-1.249c0.075-0.073,0.161-0.171,0.25-0.282c-0.049-0.557,0.082-1.125,0.385-1.637   c-0.011,0-0.021,0-0.031,0l-1.852,0.014l-0.199-1.501C70.087,78.707,69.656,80.953,68.96,83.177z"/>
	<path fill="none" d="M56.952,43.766c-0.003,0.002-0.007,0.004-0.01,0.007c1.199,0.338,3.219,0.544,4.36,0.438   C59.781,43.071,58.32,42.923,56.952,43.766z"/>
	<path fill="none" d="M64.058,11.783c-0.252-0.787-0.701-2.22-0.993-3.15c-2.725,3.985-5.218,10.339-6.57,15.312l-2.119-0.577   l-0.489,1.692l-0.004-0.001l0,0l0,0c-0.125-0.036-8.814-2.44-15.222,1.831l-1.185,0.79l-2.689-1.855   c-3.106,0.162-6.222,0.601-7.478,1.037c-0.1,1.053-0.39,2.833-0.941,6.13c-0.78,4.658-2.584,15.437-2.025,17.688   c1.433,1.511,2.05,1.498,2.118,1.484c0.172-0.02,0.61-0.312,1.159-1.282c2.285-4.042,7.464-19.54,7.607-21.68l4.19,0.28   c-0.115,1.724-1.833,7.307-3.745,12.697c1.178,0.002,2.566,0.401,4.074,1.619c1.194,0.964,1.176,1.797,0.951,2.326   c-0.415,0.974-1.788,1.265-3.283,1.265c-0.663,0-1.35-0.057-1.988-0.138c-0.592-0.075-1.095-0.166-1.536-0.265   c-0.478,1.231-0.941,2.371-1.367,3.354c4.613,2.895,20.009,10.565,34.406-4.929l0.125-0.135l-0.011,0.019   c0.14-0.202,3.117-4.472-4.09-17.564l-0.55-0.997l6.482-12.14C64.696,13.744,64.258,12.413,64.058,11.783z M52.535,35.204   c0.443-0.654,1.128-1.013,1.928-1.013v2.1c-0.116,0-0.146,0.026-0.189,0.09c-0.094,0.139-0.15,0.383-0.15,0.655   c0,0.593,0.231,0.767,0.344,0.854c0.113-0.087,0.345-0.261,0.345-0.854c0-0.271-0.056-0.516-0.149-0.655   c-0.043-0.064-0.074-0.09-0.191-0.09v-2.1c0.802,0,1.487,0.359,1.929,1.013c0.335,0.493,0.512,1.128,0.512,1.833   c0,1.565-0.914,3.185-2.444,3.185c-1.528,0-2.442-1.62-2.443-3.185C52.022,36.332,52.2,35.697,52.535,35.204z M39.338,38.087   c-0.001-0.705,0.176-1.34,0.511-1.833c0.443-0.654,1.128-1.013,1.928-1.013v2.1c-0.116,0-0.146,0.026-0.19,0.09   c-0.093,0.139-0.149,0.383-0.149,0.655c0,0.593,0.23,0.767,0.343,0.854c0.113-0.087,0.345-0.261,0.345-0.854   c0-0.271-0.056-0.516-0.15-0.655c-0.043-0.064-0.074-0.09-0.19-0.09v-2.1c0.802,0,1.486,0.359,1.928,1.013   c0.335,0.493,0.512,1.128,0.512,1.833c0,1.565-0.915,3.185-2.444,3.185C40.252,41.271,39.339,39.652,39.338,38.087z M51.819,53.324   c-0.985,0-1.807-0.266-2.46-0.795c-0.358-0.291-0.63-0.64-0.841-1.016c-0.222,0.457-0.522,0.884-0.923,1.25   c-0.781,0.713-1.806,1.069-3.062,1.069c-0.905,0-1.932-0.186-3.074-0.556l0.647-1.997c1.346,0.437,3.144,0.777,4.071-0.064   c0.887-0.807,0.882-2.521,0.752-3.553c-1.516-0.578-3.134-1.63-3.599-2.939c-0.368-1.036-0.01-2.092,0.981-2.898l0.29-0.235h8.092   l-0.159,1.189c-0.146,1.088-0.725,4.297-2.503,5.155c-0.099,0.924-0.081,2.371,0.655,2.966c0.722,0.584,2.262,0.386,4.337-0.555   l0.867,1.913C54.32,52.969,52.961,53.324,51.819,53.324z M62.843,42.749c1.193,0.964,1.176,1.797,0.95,2.326   c-0.414,0.974-1.788,1.265-3.283,1.265c-0.663,0-1.351-0.057-1.988-0.138c-4.119-0.52-4.307-1.754-4.368-2.159   c-0.064-0.421,0.013-1.212,1.253-1.778l0.003,0.009c0.128-0.093,0.273-0.19,0.438-0.292C57.127,41.188,59.733,40.238,62.843,42.749   z"/>
	<path fill="none" d="M67.611,4.836c-1.177,0.109-2.402,1.055-3.604,2.529l2.789-0.872c0,0.001,0.665,2.129,1.094,3.482   c0.73,0.291,2.426,0.647,4.035,0.843c1.223-0.434,2.571-1.258,2.76-1.866c0.082-0.267,0.168-0.535,0.254-0.803   c0.231-0.716,0.601-1.861,0.614-2.403c-0.264-0.141-0.498-0.284-0.727-0.425C73.991,4.805,73.201,4.317,67.611,4.836z"/>
	
		<line fill="none" stroke="#000000" stroke-width="0" stroke-linecap="round" stroke-linejoin="round" x1="53.882" y1="25.059" x2="53.882" y2="25.059"/>
	<path d="M77.63,2.092c-0.226-0.112-0.413-0.231-0.597-0.344c-1.755-1.085-3.291-1.701-9.812-1.093   c-3.982,0.37-7.585,4.234-11.014,11.811c-1.408,3.109-2.461,6.149-3.091,8.129c-3.188-0.574-9.747-1.167-15.549,2.047l-1.555-1.073   l-0.698,0.027c-4.35,0.168-9.872,0.751-11.473,2.575c-0.509,0.58-0.753,1.303-0.69,1.972c0.003,0.602-0.491,3.552-0.927,6.156   c-2.506,14.974-2.743,19.298-1.15,21.035c1.217,1.327,3.059,3.032,5.34,3.032c0.171,0,0.345-0.009,0.521-0.029   c1.369-0.157,2.57-0.922,3.589-2.259c0.734,0.464,1.528,0.92,2.382,1.355c-1.813,5.492-5.845,21.311,2.669,33.897   c-0.397,0.682-0.67,1.385-0.833,2.002c-1.432,1.732-1.023,3.355-0.757,4.014c1.381,3.421,7.629,4.661,11.492,4.661   c4.692,0,6.306-1.662,6.832-3.057c0.056-0.146,0.083-0.297,0.119-0.446c0.208,0.006,0.423,0.01,0.643,0.01   c0.072,0,0.148-0.006,0.221-0.007c0.067,0.196,0.144,0.382,0.229,0.544c0.611,1.155,2.092,2.529,5.674,2.529   c3.778,0,10.104-1.729,11.679-5.438c0.727-1.71,0.304-3.56-1.163-5.079c-0.149-0.153-0.922-0.914-2.151-1.619   c4.503-0.108,6.611-0.832,7.402-2.492c0.425-0.89,0.312-1.716,0.042-2.384c0.169-0.186,0.328-0.382,0.477-0.58   c0.215-0.058,0.425-0.141,0.627-0.252c1.063-0.581,2.572-2.233,0.741-6.76c-0.306-0.755-1.103-2.724-2.642-3.208   c-0.281-0.485-0.69-0.848-1.225-1.085c-0.77-0.344-1.617-0.299-2.532,0.109c-0.369-8.398-3.099-15.69-4.429-18.784   c1.331-1.086,2.651-2.312,3.953-3.709c0.869-0.881,5.249-6.393-2.801-21.588l6.428-12.037c1.526-0.577,4.312-1.947,5.095-4.488   l0.238-0.75C79.63,7.282,80.794,3.674,77.63,2.092z M38.205,45.26c-0.916,0.085-2.392-0.033-3.562-0.257   c0.078-0.208,0.155-0.416,0.232-0.627C35.941,44.106,37.056,44.401,38.205,45.26z M31.16,49.417L31.16,49.417L31.16,49.417z    M45.479,95.809c-3.574,0-6.628-1.131-7.442-1.865c0.027-0.029,0.059-0.062,0.096-0.098l0.498-0.496l0.117-0.676   c0.04-0.227,0.427-2.205,1.952-2.205c0.818,0,2.698,0.447,6.097,3.442c0.829,0.729,1.218,1.234,1.397,1.526   C47.769,95.604,46.91,95.809,45.479,95.809z M54.381,91.631c-0.153,0.227-0.272,0.439-0.395,0.653   c-1.063,0.071-2.303-0.009-2.993-0.077c-0.4-0.476-0.865-0.958-1.421-1.448c-1.738-1.531-3.341-2.66-4.83-3.404   c-1.299-6.015-2.66-17.597,2.42-19.643c4.178-1.685,4.761-0.319,4.954,0.128c0.103,0.238,0.232,0.415,0.378,0.554   c0.017,1.207,0.354,1.986,1.018,2.323c0.233,0.119,0.479,0.19,0.753,0.19c0.326,0,0.692-0.106,1.119-0.346   c1.397,2.509,4.822,9.681,3.09,16.944C57.138,88.334,55.736,89.632,54.381,91.631z M59.196,95.382   c-1.059,0-1.652-0.179-1.898-0.298c0.044-0.177,0.174-0.529,0.559-1.096c1.632-2.406,3.355-3.626,5.123-3.626   c2.066,0,3.716,1.623,3.717,1.624c0.253,0.263,0.324,0.435,0.329,0.467C66.908,93.367,63.046,95.382,59.196,95.382z M72.357,77.973   c0.011,0,0.021,0,0.031,0c-0.303,0.512-0.434,1.08-0.385,1.637c-0.089,0.111-0.175,0.209-0.25,0.282   c-0.665,0.175-1.199,0.621-1.474,1.249c-0.323,0.745-0.178,1.395,0.065,1.889c-0.354,0.055-0.81,0.106-1.386,0.147   c0.696-2.224,1.127-4.47,1.347-6.691l0.199,1.501L72.357,77.973z M63.188,86.172c-0.069-0.002-0.138-0.009-0.209-0.009   c-0.64,0-1.369,0.083-2.154,0.3c1.221-7.785-2.438-14.941-3.783-17.244c0.926-0.927,2.067-2.293,3.52-4.257l-1.688-1.248   c-2.471,3.338-3.729,4.483-4.293,4.876c-0.03-0.909,0.329-2.839,0.89-4.641l-2.006-0.624c-0.246,0.788-0.429,1.496-0.582,2.162   c-1.364-1.007-3.541-0.918-6.506,0.276c-0.899,0.362-1.638,0.916-2.255,1.602c-0.014-1.25-0.357-3.004-1.033-5.411l-2.021,0.568   c0.917,3.264,0.998,4.655,0.954,5.215c-0.837-0.505-2.511-2.282-3.91-4.194l-1.695,1.239c2.518,3.445,4.512,5.183,5.944,5.183   c0.073,0,0.141-0.015,0.21-0.022c-1.917,4.875-0.932,12.367-0.134,16.555c-0.597-0.144-1.178-0.228-1.738-0.228   c-0.702,0-1.333,0.11-1.898,0.302c-6.853-10.639-3.607-24.344-2.005-29.464c3.113,1.113,6.674,1.863,10.477,1.863   c4.845,0,10.072-1.222,15.235-4.439C64.681,59.976,69.344,74.462,63.188,86.172z M62.952,27.73   c7.207,13.092,4.229,17.362,4.09,17.564l0.011-0.019l-0.125,0.135c-14.397,15.494-29.793,7.824-34.406,4.929   c0.426-0.983,0.889-2.122,1.367-3.354c0.441,0.1,0.944,0.19,1.536,0.265c0.638,0.081,1.325,0.138,1.988,0.138   c1.495,0,2.869-0.291,3.283-1.265c0.225-0.529,0.243-1.361-0.951-2.326c-1.508-1.218-2.896-1.617-4.074-1.619   c1.912-5.391,3.63-10.974,3.745-12.697l-4.19-0.28c-0.143,2.14-5.322,17.638-7.607,21.68c-0.548,0.971-0.987,1.263-1.159,1.282   c-0.068,0.014-0.685,0.027-2.118-1.484c-0.559-2.251,1.246-13.03,2.025-17.688c0.551-3.297,0.841-5.077,0.941-6.13   c1.255-0.437,4.372-0.875,7.478-1.037l2.689,1.855l1.185-0.79c6.407-4.271,15.097-1.866,15.222-1.831l0.004,0.001l0.489-1.692   l2.119,0.577c1.353-4.972,3.846-11.327,6.57-15.312c0.292,0.93,0.741,2.363,0.993,3.15c0.2,0.63,0.639,1.961,4.827,2.811   l-6.482,12.14L62.952,27.73z M74.938,8.148c-0.086,0.268-0.172,0.537-0.254,0.803c-0.188,0.608-1.537,1.432-2.76,1.866   c-1.609-0.195-3.305-0.552-4.035-0.843c-0.429-1.353-1.094-3.481-1.094-3.482l-2.789,0.872c1.202-1.474,2.428-2.42,3.604-2.529   c5.59-0.519,6.38-0.031,7.215,0.485c0.229,0.141,0.463,0.284,0.727,0.425C75.539,6.287,75.17,7.432,74.938,8.148z"/>
	
		<line fill="none" stroke="#000000" stroke-width="0" stroke-linecap="round" stroke-linejoin="round" x1="31.16" y1="49.417" x2="31.16" y2="49.417"/>
	<path d="M55.848,41.98c-0.165,0.103-0.311,0.2-0.438,0.292l-0.003-0.009c-1.24,0.566-1.317,1.357-1.253,1.778   c0.062,0.405,0.249,1.639,4.368,2.159c0.638,0.081,1.325,0.138,1.988,0.138c1.495,0,2.869-0.291,3.283-1.265   c0.226-0.529,0.243-1.361-0.95-2.326C59.733,40.238,57.127,41.188,55.848,41.98z M56.942,43.773   c0.003-0.002,0.007-0.005,0.01-0.007c1.368-0.843,2.829-0.695,4.351,0.444C60.161,44.317,58.142,44.111,56.942,43.773z"/>
	<path d="M50.685,50.9c-0.736-0.595-0.753-2.042-0.655-2.966c1.779-0.857,2.358-4.066,2.503-5.155l0.159-1.189h-8.092l-0.29,0.235   c-0.991,0.807-1.349,1.863-0.981,2.898c0.465,1.309,2.083,2.361,3.599,2.939c0.129,1.031,0.135,2.746-0.752,3.553   c-0.927,0.842-2.725,0.501-4.071,0.064l-0.647,1.997c1.142,0.37,2.168,0.556,3.074,0.556c1.257,0,2.282-0.356,3.062-1.069   c0.401-0.366,0.701-0.793,0.923-1.25c0.211,0.376,0.483,0.725,0.841,1.016c0.653,0.529,1.476,0.795,2.46,0.795   c1.142,0,2.501-0.355,4.069-1.065l-0.867-1.913C52.946,51.286,51.406,51.484,50.685,50.9z M45.308,44.021   c-0.02-0.055-0.055-0.153,0.086-0.331h4.83c-0.339,1.361-0.863,2.362-1.129,2.362C48.082,46.052,45.633,44.936,45.308,44.021z"/>
	<path d="M54.467,40.222c1.53,0,2.444-1.62,2.444-3.185c0-0.705-0.177-1.34-0.512-1.833c-0.441-0.654-1.127-1.013-1.929-1.013v2.1   c0.117,0,0.148,0.026,0.191,0.09c0.094,0.139,0.149,0.383,0.149,0.655c0,0.593-0.231,0.767-0.345,0.854   c-0.112-0.087-0.344-0.261-0.344-0.854c0-0.271,0.057-0.516,0.15-0.655c0.043-0.064,0.073-0.09,0.189-0.09v-2.1   c-0.8,0-1.484,0.359-1.928,1.013c-0.335,0.493-0.513,1.128-0.512,1.833C52.024,38.602,52.938,40.222,54.467,40.222z"/>
	<path d="M44.225,38.087c0-0.705-0.176-1.34-0.512-1.833c-0.442-0.654-1.126-1.013-1.928-1.013v2.1c0.117,0,0.147,0.026,0.19,0.09   c0.094,0.139,0.15,0.383,0.15,0.655c0,0.593-0.232,0.767-0.345,0.854c-0.113-0.087-0.343-0.261-0.343-0.854   c0-0.271,0.056-0.516,0.149-0.655c0.043-0.064,0.074-0.09,0.19-0.09v-2.1c-0.8,0-1.485,0.359-1.928,1.013   c-0.335,0.493-0.513,1.128-0.511,1.833c0.001,1.565,0.915,3.185,2.443,3.185C43.311,41.271,44.225,39.652,44.225,38.087z"/>
</g>
</svg>